<svg width="32" height="32" viewBox="0 0 32 32" fill="none" xmlns="http://www.w3.org/2000/svg">
<path d="M4.00023 28.5671C3.60023 28.5671 3.2437 28.4693 2.93066 28.2738C2.61762 28.0782 2.37414 27.8205 2.20023 27.5005C2.02245 27.1893 1.928 26.8494 1.91689 26.4806C1.90578 26.1117 2.00023 25.7517 2.20023 25.4005L14.1669 4.66712C14.3669 4.31157 14.6347 4.05046 14.9703 3.88379C15.3059 3.71712 15.6504 3.63379 16.0037 3.63379C16.3569 3.63379 16.7002 3.71712 17.0336 3.88379C17.3669 4.05046 17.6336 4.31157 17.8336 4.66712L29.8002 25.4005C30.0002 25.7517 30.0947 26.1117 30.0836 26.4806C30.0724 26.8494 29.978 27.1893 29.8002 27.5005C29.6224 27.8116 29.378 28.0671 29.0669 28.2671C28.7558 28.4671 28.4002 28.5671 28.0002 28.5671H4.00023ZM6.76689 24.8671H25.2336L16.0002 8.93379L6.76689 24.8671ZM16.0002 23.9005C16.4002 23.9005 16.7502 23.7505 17.0502 23.4505C17.3502 23.1505 17.5002 22.8005 17.5002 22.4005C17.5002 22.0005 17.3502 21.656 17.0502 21.3671C16.7502 21.0782 16.4002 20.9338 16.0002 20.9338C15.6002 20.9338 15.2502 21.0782 14.9502 21.3671C14.6502 21.656 14.5002 22.0005 14.5002 22.4005C14.5002 22.8005 14.6502 23.1505 14.9502 23.4505C15.2502 23.7505 15.6002 23.9005 16.0002 23.9005ZM16.0002 20.0005C16.378 20.0005 16.6947 19.8727 16.9502 19.6171C17.2058 19.3616 17.3336 19.0449 17.3336 18.6671V15.0338C17.3336 14.656 17.2058 14.3393 16.9502 14.0838C16.6947 13.8282 16.378 13.7005 16.0002 13.7005C15.6224 13.7005 15.3058 13.8282 15.0502 14.0838C14.7947 14.3393 14.6669 14.656 14.6669 15.0338V18.6671C14.6669 19.0449 14.7947 19.3616 15.0502 19.6171C15.3058 19.8727 15.6224 20.0005 16.0002 20.0005Z" fill="#EE4E34"/>
</svg>
