<svg width="49" height="49" viewBox="0 0 49 49" fill="none" xmlns="http://www.w3.org/2000/svg">
<mask id="path-1-inside-1_368_4158" fill="white">
<path fill-rule="evenodd" clip-rule="evenodd" d="M6.30652 12.7351C9.6056 12.7351 12.28 10.0607 12.28 6.7616C12.28 10.0607 14.9545 12.7351 18.2535 12.7351C14.9545 12.7351 12.28 15.4095 12.28 18.7086C12.28 15.4095 9.6056 12.7351 6.30652 12.7351ZM6.30652 24.6821C3.00744 24.6821 0.333008 22.0077 0.333008 18.7086C0.333008 15.4095 3.00744 12.7351 6.30652 12.7351C3.00744 12.7351 0.333008 10.0607 0.333008 6.7616C0.333008 3.46252 3.00744 0.788086 6.30652 0.788086C9.6056 0.788086 12.28 3.46252 12.28 6.7616C12.28 3.46252 14.9545 0.788086 18.2535 0.788086C21.5526 0.788086 24.2271 3.46252 24.2271 6.7616C24.2271 10.0607 21.5526 12.7351 18.2535 12.7351C21.5526 12.7351 24.2271 15.4095 24.2271 18.7086C24.2271 22.0077 21.5526 24.6821 18.2535 24.6821C14.9545 24.6821 12.28 22.0077 12.28 18.7086C12.28 22.0077 9.6056 24.6821 6.30652 24.6821ZM12.28 30.6556C12.28 27.3566 9.6056 24.6821 6.30652 24.6821C3.00744 24.6821 0.333008 27.3566 0.333008 30.6556C0.333008 33.9547 3.00744 36.6292 6.30652 36.6292C3.00744 36.6292 0.333008 39.3036 0.333008 42.6027C0.333008 45.9017 3.00744 48.5762 6.30652 48.5762C9.6056 48.5762 12.28 45.9017 12.28 42.6027C12.28 45.9017 14.9545 48.5762 18.2535 48.5762C21.5526 48.5762 24.2271 45.9017 24.2271 42.6027C24.2271 45.9017 26.9015 48.5762 30.2006 48.5762C33.4996 48.5762 36.1741 45.9017 36.1741 42.6027C36.1741 45.9017 38.8485 48.5762 42.1476 48.5762C45.4467 48.5762 48.1211 45.9017 48.1211 42.6027C48.1211 39.3036 45.4467 36.6292 42.1476 36.6292C45.4467 36.6292 48.1211 33.9547 48.1211 30.6556C48.1211 27.3566 45.4467 24.6821 42.1476 24.6821C45.4467 24.6821 48.1211 22.0077 48.1211 18.7086C48.1211 15.4095 45.4467 12.7351 42.1476 12.7351C45.4467 12.7351 48.1211 10.0607 48.1211 6.7616C48.1211 3.46252 45.4467 0.788086 42.1476 0.788086C38.8485 0.788086 36.1741 3.46252 36.1741 6.7616C36.1741 3.46252 33.4996 0.788086 30.2006 0.788086C26.9015 0.788086 24.2271 3.46252 24.2271 6.7616C24.2271 10.0607 26.9015 12.7351 30.2006 12.7351C26.9015 12.7351 24.2271 15.4095 24.2271 18.7086C24.2271 22.0077 26.9015 24.6821 30.2006 24.6821C26.9015 24.6821 24.2271 27.3566 24.2271 30.6556C24.2271 27.3566 21.5526 24.6821 18.2535 24.6821C14.9545 24.6821 12.28 27.3566 12.28 30.6556ZM18.2535 36.6292C14.9545 36.6292 12.28 39.3036 12.28 42.6027C12.28 39.3036 9.6056 36.6292 6.30652 36.6292C9.6056 36.6292 12.28 33.9547 12.28 30.6556C12.28 33.9547 14.9545 36.6292 18.2535 36.6292ZM30.2006 36.6292C33.4996 36.6292 36.1741 39.3036 36.1741 42.6027C36.1741 39.3036 38.8485 36.6292 42.1476 36.6292C38.8485 36.6292 36.1741 33.9547 36.1741 30.6556C36.1741 27.3566 38.8485 24.6821 42.1476 24.6821C38.8485 24.6821 36.1741 22.0077 36.1741 18.7086C36.1741 15.4095 38.8485 12.7351 42.1476 12.7351C38.8485 12.7351 36.1741 10.0607 36.1741 6.7616C36.1741 10.0607 33.4996 12.7351 30.2006 12.7351C33.4996 12.7351 36.1741 15.4095 36.1741 18.7086C36.1741 22.0077 33.4996 24.6821 30.2006 24.6821C33.4996 24.6821 36.1741 27.3566 36.1741 30.6556C36.1741 33.9547 33.4996 36.6292 30.2006 36.6292ZM30.2006 36.6292C26.9015 36.6292 24.2271 39.3036 24.2271 42.6027C24.2271 39.3036 21.5526 36.6292 18.2535 36.6292C21.5526 36.6292 24.2271 33.9547 24.2271 30.6556C24.2271 33.9547 26.9015 36.6292 30.2006 36.6292Z"/>
</mask>
<path d="M11.5773 6.7616C11.5773 9.67255 9.21747 12.0323 6.30652 12.0323V13.4379C9.99372 13.4379 12.9828 10.4488 12.9828 6.7616H11.5773ZM11.5773 6.7616C11.5773 10.4488 14.5663 13.4379 18.2535 13.4379V12.0323C15.3426 12.0323 12.9828 9.67255 12.9828 6.7616H11.5773ZM18.2535 12.0323C14.5663 12.0323 11.5773 15.0214 11.5773 18.7086H12.9828C12.9828 15.7977 15.3426 13.4379 18.2535 13.4379V12.0323ZM12.9828 18.7086C12.9828 15.0214 9.99372 12.0323 6.30652 12.0323V13.4379C9.21747 13.4379 11.5773 15.7977 11.5773 18.7086H12.9828ZM-0.369758 18.7086C-0.369758 22.3958 2.61931 25.3849 6.30652 25.3849V23.9794C3.39557 23.9794 1.03577 21.6196 1.03577 18.7086H-0.369758ZM6.30652 12.0323C2.61931 12.0323 -0.369758 15.0214 -0.369758 18.7086H1.03577C1.03577 15.7977 3.39557 13.4379 6.30652 13.4379V12.0323ZM6.30652 12.0323C3.39557 12.0323 1.03577 9.67255 1.03577 6.7616H-0.369758C-0.369758 10.4488 2.61931 13.4379 6.30652 13.4379V12.0323ZM1.03577 6.7616C1.03577 3.85064 3.39557 1.49085 6.30652 1.49085V0.08532C2.61931 0.08532 -0.369758 3.07439 -0.369758 6.7616H1.03577ZM6.30652 1.49085C9.21747 1.49085 11.5773 3.85064 11.5773 6.7616H12.9828C12.9828 3.07439 9.99372 0.08532 6.30652 0.08532V1.49085ZM18.2535 0.08532C14.5663 0.08532 11.5773 3.07439 11.5773 6.7616H12.9828C12.9828 3.85064 15.3426 1.49085 18.2535 1.49085V0.08532ZM24.9298 6.7616C24.9298 3.07439 21.9407 0.08532 18.2535 0.08532V1.49085C21.1645 1.49085 23.5243 3.85064 23.5243 6.7616H24.9298ZM23.5243 6.7616C23.5243 9.67255 21.1645 12.0323 18.2535 12.0323V13.4379C21.9407 13.4379 24.9298 10.4488 24.9298 6.7616H23.5243ZM18.2535 13.4379C21.1645 13.4379 23.5243 15.7977 23.5243 18.7086H24.9298C24.9298 15.0214 21.9407 12.0323 18.2535 12.0323V13.4379ZM23.5243 18.7086C23.5243 21.6196 21.1645 23.9794 18.2535 23.9794V25.3849C21.9407 25.3849 24.9298 22.3958 24.9298 18.7086H23.5243ZM18.2535 23.9794C15.3426 23.9794 12.9828 21.6196 12.9828 18.7086H11.5773C11.5773 22.3958 14.5663 25.3849 18.2535 25.3849V23.9794ZM11.5773 18.7086C11.5773 21.6196 9.21747 23.9794 6.30652 23.9794V25.3849C9.99372 25.3849 12.9828 22.3958 12.9828 18.7086H11.5773ZM6.30652 25.3849C9.21747 25.3849 11.5773 27.7447 11.5773 30.6556H12.9828C12.9828 26.9684 9.99372 23.9794 6.30652 23.9794V25.3849ZM6.30652 23.9794C2.61931 23.9794 -0.369758 26.9684 -0.369758 30.6556H1.03577C1.03577 27.7447 3.39557 25.3849 6.30652 25.3849V23.9794ZM-0.369758 30.6556C-0.369758 34.3428 2.61931 37.3319 6.30652 37.3319V35.9264C3.39557 35.9264 1.03577 33.5666 1.03577 30.6556H-0.369758ZM6.30652 35.9264C2.61931 35.9264 -0.369758 38.9155 -0.369758 42.6027H1.03577C1.03577 39.6917 3.39557 37.3319 6.30652 37.3319V35.9264ZM-0.369758 42.6027C-0.369758 46.2899 2.61931 49.2789 6.30652 49.2789V47.8734C3.39557 47.8734 1.03577 45.5136 1.03577 42.6027H-0.369758ZM6.30652 49.2789C9.99372 49.2789 12.9828 46.2899 12.9828 42.6027H11.5773C11.5773 45.5136 9.21747 47.8734 6.30652 47.8734V49.2789ZM11.5773 42.6027C11.5773 46.2899 14.5663 49.2789 18.2535 49.2789V47.8734C15.3426 47.8734 12.9828 45.5136 12.9828 42.6027H11.5773ZM18.2535 49.2789C21.9407 49.2789 24.9298 46.2899 24.9298 42.6027H23.5243C23.5243 45.5136 21.1645 47.8734 18.2535 47.8734V49.2789ZM23.5243 42.6027C23.5243 46.2899 26.5134 49.2789 30.2006 49.2789V47.8734C27.2896 47.8734 24.9298 45.5136 24.9298 42.6027H23.5243ZM30.2006 49.2789C33.8878 49.2789 36.8768 46.2899 36.8768 42.6027H35.4713C35.4713 45.5136 33.1115 47.8734 30.2006 47.8734V49.2789ZM42.1476 47.8734C39.2366 47.8734 36.8768 45.5136 36.8768 42.6027H35.4713C35.4713 46.2899 38.4604 49.2789 42.1476 49.2789V47.8734ZM47.4183 42.6027C47.4183 45.5136 45.0585 47.8734 42.1476 47.8734V49.2789C45.8348 49.2789 48.8239 46.2899 48.8239 42.6027H47.4183ZM42.1476 37.3319C45.0585 37.3319 47.4183 39.6917 47.4183 42.6027H48.8239C48.8239 38.9155 45.8348 35.9264 42.1476 35.9264V37.3319ZM42.1476 37.3319C45.8348 37.3319 48.8239 34.3428 48.8239 30.6556H47.4183C47.4183 33.5666 45.0585 35.9264 42.1476 35.9264V37.3319ZM48.8239 30.6556C48.8239 26.9684 45.8348 23.9794 42.1476 23.9794V25.3849C45.0585 25.3849 47.4183 27.7447 47.4183 30.6556H48.8239ZM42.1476 25.3849C45.8348 25.3849 48.8239 22.3958 48.8239 18.7086H47.4183C47.4183 21.6196 45.0585 23.9794 42.1476 23.9794V25.3849ZM48.8239 18.7086C48.8239 15.0214 45.8348 12.0323 42.1476 12.0323V13.4379C45.0585 13.4379 47.4183 15.7977 47.4183 18.7086H48.8239ZM42.1476 13.4379C45.8348 13.4379 48.8239 10.4488 48.8239 6.7616H47.4183C47.4183 9.67255 45.0585 12.0323 42.1476 12.0323V13.4379ZM48.8239 6.7616C48.8239 3.07439 45.8348 0.08532 42.1476 0.08532V1.49085C45.0585 1.49085 47.4183 3.85064 47.4183 6.7616H48.8239ZM42.1476 0.08532C38.4604 0.08532 35.4713 3.07439 35.4713 6.7616H36.8768C36.8768 3.85064 39.2366 1.49085 42.1476 1.49085V0.08532ZM36.8768 6.7616C36.8768 3.07439 33.8878 0.08532 30.2006 0.08532V1.49085C33.1115 1.49085 35.4713 3.85064 35.4713 6.7616H36.8768ZM30.2006 0.08532C26.5134 0.08532 23.5243 3.07439 23.5243 6.7616H24.9298C24.9298 3.85064 27.2896 1.49085 30.2006 1.49085V0.08532ZM30.2006 12.0323C27.2896 12.0323 24.9298 9.67255 24.9298 6.7616H23.5243C23.5243 10.4488 26.5134 13.4379 30.2006 13.4379V12.0323ZM24.9298 18.7086C24.9298 15.7977 27.2896 13.4379 30.2006 13.4379V12.0323C26.5134 12.0323 23.5243 15.0214 23.5243 18.7086H24.9298ZM30.2006 23.9794C27.2896 23.9794 24.9298 21.6196 24.9298 18.7086H23.5243C23.5243 22.3958 26.5134 25.3849 30.2006 25.3849V23.9794ZM24.9298 30.6556C24.9298 27.7447 27.2896 25.3849 30.2006 25.3849V23.9794C26.5134 23.9794 23.5243 26.9684 23.5243 30.6556H24.9298ZM18.2535 25.3849C21.1645 25.3849 23.5243 27.7447 23.5243 30.6556H24.9298C24.9298 26.9684 21.9407 23.9794 18.2535 23.9794V25.3849ZM12.9828 30.6556C12.9828 27.7447 15.3426 25.3849 18.2535 25.3849V23.9794C14.5663 23.9794 11.5773 26.9684 11.5773 30.6556H12.9828ZM12.9828 42.6027C12.9828 39.6917 15.3426 37.3319 18.2535 37.3319V35.9264C14.5663 35.9264 11.5773 38.9155 11.5773 42.6027H12.9828ZM6.30652 37.3319C9.21747 37.3319 11.5773 39.6917 11.5773 42.6027H12.9828C12.9828 38.9155 9.99372 35.9264 6.30652 35.9264V37.3319ZM11.5773 30.6556C11.5773 33.5666 9.21747 35.9264 6.30652 35.9264V37.3319C9.99372 37.3319 12.9828 34.3428 12.9828 30.6556H11.5773ZM18.2535 35.9264C15.3426 35.9264 12.9828 33.5666 12.9828 30.6556H11.5773C11.5773 34.3428 14.5663 37.3319 18.2535 37.3319V35.9264ZM36.8768 42.6027C36.8768 38.9155 33.8878 35.9264 30.2006 35.9264V37.3319C33.1115 37.3319 35.4713 39.6917 35.4713 42.6027H36.8768ZM36.8768 42.6027C36.8768 39.6917 39.2366 37.3319 42.1476 37.3319V35.9264C38.4604 35.9264 35.4713 38.9155 35.4713 42.6027H36.8768ZM35.4713 30.6556C35.4713 34.3428 38.4604 37.3319 42.1476 37.3319V35.9264C39.2366 35.9264 36.8768 33.5666 36.8768 30.6556H35.4713ZM36.8768 30.6556C36.8768 27.7447 39.2366 25.3849 42.1476 25.3849V23.9794C38.4604 23.9794 35.4713 26.9684 35.4713 30.6556H36.8768ZM42.1476 23.9794C39.2366 23.9794 36.8768 21.6196 36.8768 18.7086H35.4713C35.4713 22.3958 38.4604 25.3849 42.1476 25.3849V23.9794ZM36.8768 18.7086C36.8768 15.7977 39.2366 13.4379 42.1476 13.4379V12.0323C38.4604 12.0323 35.4713 15.0214 35.4713 18.7086H36.8768ZM42.1476 12.0323C39.2366 12.0323 36.8768 9.67255 36.8768 6.7616H35.4713C35.4713 10.4488 38.4604 13.4379 42.1476 13.4379V12.0323ZM35.4713 6.7616C35.4713 9.67255 33.1115 12.0323 30.2006 12.0323V13.4379C33.8878 13.4379 36.8768 10.4488 36.8768 6.7616H35.4713ZM30.2006 13.4379C33.1115 13.4379 35.4713 15.7977 35.4713 18.7086H36.8768C36.8768 15.0214 33.8878 12.0323 30.2006 12.0323V13.4379ZM35.4713 18.7086C35.4713 21.6196 33.1115 23.9794 30.2006 23.9794V25.3849C33.8878 25.3849 36.8768 22.3958 36.8768 18.7086H35.4713ZM30.2006 25.3849C33.1115 25.3849 35.4713 27.7447 35.4713 30.6556H36.8768C36.8768 26.9684 33.8878 23.9794 30.2006 23.9794V25.3849ZM30.2006 37.3319C33.8878 37.3319 36.8768 34.3428 36.8768 30.6556H35.4713C35.4713 33.5666 33.1115 35.9264 30.2006 35.9264V37.3319ZM24.9298 42.6027C24.9298 39.6917 27.2896 37.3319 30.2006 37.3319V35.9264C26.5134 35.9264 23.5243 38.9155 23.5243 42.6027H24.9298ZM18.2535 37.3319C21.1645 37.3319 23.5243 39.6917 23.5243 42.6027H24.9298C24.9298 38.9155 21.9407 35.9264 18.2535 35.9264V37.3319ZM23.5243 30.6556C23.5243 33.5666 21.1645 35.9264 18.2535 35.9264V37.3319C21.9407 37.3319 24.9298 34.3428 24.9298 30.6556H23.5243ZM30.2006 35.9264C27.2896 35.9264 24.9298 33.5666 24.9298 30.6556H23.5243C23.5243 34.3428 26.5134 37.3319 30.2006 37.3319V35.9264Z" fill="#444444" mask="url(#path-1-inside-1_368_4158)"/>
<circle cx="42.3447" cy="18.643" r="6.30173" fill="#EE4E34"/>
<circle cx="30.2666" cy="18.643" r="6.30173" fill="#EE4E34"/>
<circle cx="42.3447" cy="7.08981" r="6.30173" fill="#EE4E34"/>
<circle cx="30.2666" cy="7.08981" r="6.30173" fill="#EE4E34"/>
</svg>
