<svg width="25" height="25" viewBox="0 0 25 25" fill="none" xmlns="http://www.w3.org/2000/svg">
<path d="M15.3004 14.275H5.22539C4.79206 14.275 4.42122 14.1208 4.11289 13.8125C3.80456 13.5042 3.65039 13.1333 3.65039 12.7C3.65039 12.2667 3.80456 11.8958 4.11289 11.5875C4.42122 11.2792 4.79206 11.125 5.22539 11.125H15.3004L11.3754 7.2C11.0587 6.88333 10.9004 6.50833 10.9004 6.075C10.9004 5.64167 11.0587 5.26667 11.3754 4.95C11.6921 4.65 12.0671 4.5 12.5004 4.5C12.9337 4.5 13.3087 4.65833 13.6254 4.975L20.2254 11.575C20.3754 11.725 20.4921 11.9 20.5754 12.1C20.6587 12.3 20.7004 12.5 20.7004 12.7C20.7004 12.9 20.6587 13.1 20.5754 13.3C20.4921 13.5 20.3754 13.675 20.2254 13.825L13.6004 20.45C13.2837 20.7667 12.9129 20.925 12.4879 20.925C12.0629 20.925 11.6921 20.7667 11.3754 20.45C11.0587 20.1333 10.9004 19.7583 10.9004 19.325C10.9004 18.8917 11.0587 18.5167 11.3754 18.2L15.3004 14.275Z" fill="#EE4E34"/>
</svg>
