<svg width="182" height="33" viewBox="0 0 182 33" fill="none" xmlns="http://www.w3.org/2000/svg">
<path d="M16.3333 3.48926L20.4533 11.8359L29.6667 13.1826L23 19.6759L24.5733 28.8493L16.3333 24.5159L8.09333 28.8493L9.66667 19.6759L3 13.1826L12.2133 11.8359L16.3333 3.48926Z" fill="#F59E0B" stroke="#F59E0B" stroke-width="2.66667" stroke-linecap="round" stroke-linejoin="round"/>
<path d="M53.6663 3.48926L57.7863 11.8359L66.9997 13.1826L60.333 19.6759L61.9063 28.8493L53.6663 24.5159L45.4263 28.8493L46.9997 19.6759L40.333 13.1826L49.5463 11.8359L53.6663 3.48926Z" fill="#F59E0B" stroke="#F59E0B" stroke-width="2.66667" stroke-linecap="round" stroke-linejoin="round"/>
<path d="M91.0003 3.48926L95.1203 11.8359L104.334 13.1826L97.667 19.6759L99.2403 28.8493L91.0003 24.5159L82.7603 28.8493L84.3337 19.6759L77.667 13.1826L86.8803 11.8359L91.0003 3.48926Z" fill="#F59E0B" stroke="#F59E0B" stroke-width="2.66667" stroke-linecap="round" stroke-linejoin="round"/>
<path d="M128.333 3.48926L132.453 11.8359L141.667 13.1826L135 19.6759L136.573 28.8493L128.333 24.5159L120.093 28.8493L121.667 19.6759L115 13.1826L124.213 11.8359L128.333 3.48926Z" fill="#F59E0B" stroke="#F59E0B" stroke-width="2.66667" stroke-linecap="round" stroke-linejoin="round"/>
<path d="M165.666 3.48926L169.786 11.8359L179 13.1826L172.333 19.6759L173.906 28.8493L165.666 24.5159L157.426 28.8493L159 19.6759L152.333 13.1826L161.546 11.8359L165.666 3.48926Z" fill="#F59E0B" stroke="#F59E0B" stroke-width="2.66667" stroke-linecap="round" stroke-linejoin="round"/>
</svg>
