<svg width="182" height="33" viewBox="0 0 182 33" fill="none" xmlns="http://www.w3.org/2000/svg">
<path d="M16.0003 3.48926L20.1203 11.8359L29.3337 13.1826L22.667 19.6759L24.2403 28.8493L16.0003 24.5159L7.76033 28.8493L9.33366 19.6759L2.66699 13.1826L11.8803 11.8359L16.0003 3.48926Z" fill="#F59E0B" stroke="#F59E0B" stroke-width="2.66667" stroke-linecap="round" stroke-linejoin="round"/>
<path d="M53.3333 3.48926L57.4533 11.8359L66.6667 13.1826L60 19.6759L61.5733 28.8493L53.3333 24.5159L45.0933 28.8493L46.6667 19.6759L40 13.1826L49.2133 11.8359L53.3333 3.48926Z" fill="#F59E0B" stroke="#F59E0B" stroke-width="2.66667" stroke-linecap="round" stroke-linejoin="round"/>
<path d="M90.6673 3.48926L94.7873 11.8359L104.001 13.1826L97.334 19.6759L98.9073 28.8493L90.6673 24.5159L82.4273 28.8493L84.0007 19.6759L77.334 13.1826L86.5473 11.8359L90.6673 3.48926Z" fill="#F59E0B" stroke="#F59E0B" stroke-width="2.66667" stroke-linecap="round" stroke-linejoin="round"/>
<path d="M128 3.48926L132.12 11.8359L141.334 13.1826L134.667 19.6759L136.24 28.8493L128 24.5159L119.76 28.8493L121.334 19.6759L114.667 13.1826L123.88 11.8359L128 3.48926Z" fill="#F59E0B" stroke="#F59E0B" stroke-width="2.66667" stroke-linecap="round" stroke-linejoin="round"/>
<path d="M165.333 3.48926L169.453 11.8359L178.667 13.1826L172 19.6759L173.573 28.8493L165.333 24.5159L157.093 28.8493L158.667 19.6759L152 13.1826L161.213 11.8359L165.333 3.48926Z" stroke="#F59E0B" stroke-width="2.66667" stroke-linecap="round" stroke-linejoin="round"/>
<path d="M154.879 14.0765L160.639 11.1965L165.439 6.39648L159.039 26.8765L157.439 20.1565L154.879 14.0765Z" fill="#F59E0B"/>
</svg>
