<svg width="32" height="32" viewBox="0 0 32 32" fill="none" xmlns="http://www.w3.org/2000/svg">
<path d="M14.0332 17.2332L12.0332 15.2332C11.6554 14.8554 11.1888 14.6665 10.6332 14.6665C10.0776 14.6665 9.61098 14.8554 9.2332 15.2332C8.85543 15.611 8.67209 16.0776 8.6832 16.6332C8.69431 17.1888 8.88876 17.6554 9.26654 18.0332L12.5332 21.2999C12.9635 21.7221 13.4655 21.9332 14.0393 21.9332C14.613 21.9332 15.111 21.7221 15.5332 21.2999L22.5665 14.2665C22.9443 13.8888 23.1332 13.4276 23.1332 12.8832C23.1332 12.3388 22.9443 11.8776 22.5665 11.4999C22.1888 11.1221 21.7221 10.9332 21.1665 10.9332C20.611 10.9332 20.1443 11.1221 19.7665 11.4999L14.0332 17.2332ZM15.9999 30.4665C13.9776 30.4665 12.0889 30.0878 10.3336 29.3304C8.57835 28.573 7.05149 27.5451 5.75307 26.2467C4.45465 24.9482 3.42674 23.4214 2.66934 21.6661C1.91191 19.9108 1.5332 18.0221 1.5332 15.9999C1.5332 13.9776 1.91191 12.0889 2.66934 10.3336C3.42674 8.57835 4.45465 7.05149 5.75307 5.75307C7.05149 4.45465 8.57835 3.42674 10.3336 2.66934C12.0889 1.91191 13.9776 1.5332 15.9999 1.5332C18.0221 1.5332 19.9108 1.91191 21.6661 2.66934C23.4214 3.42674 24.9482 4.45465 26.2467 5.75307C27.5451 7.05149 28.573 8.57835 29.3304 10.3336C30.0878 12.0889 30.4665 13.9776 30.4665 15.9999C30.4665 18.0221 30.0878 19.9108 29.3304 21.6661C28.573 23.4214 27.5451 24.9482 26.2467 26.2467C24.9482 27.5451 23.4214 28.573 21.6661 29.3304C19.9108 30.0878 18.0221 30.4665 15.9999 30.4665ZM15.9999 26.2665C18.8888 26.2665 21.3221 25.2776 23.2999 23.2999C25.2776 21.3221 26.2665 18.8888 26.2665 15.9999C26.2665 13.111 25.2776 10.6776 23.2999 8.69987C21.3221 6.72209 18.8888 5.7332 15.9999 5.7332C13.111 5.7332 10.6776 6.72209 8.69987 8.69987C6.72209 10.6776 5.7332 13.111 5.7332 15.9999C5.7332 18.8888 6.72209 21.3221 8.69987 23.2999C10.6776 25.2776 13.111 26.2665 15.9999 26.2665Z" fill="#399F6F"/>
</svg>
